# xmcd CD database file
#
# Track frame offsets:
#	182
#	17775
#	35212
#	54855
#	72607
#	92660
#	112480
#	127987
#	144357
#	161477
#	180780
#
# Disc length: 2665 seconds
#
# Revision: 1
# Processed by: cddbd v1.4PL0 Copyright (c) Steve Scherf et al.
# Submitted via: CDex 1.50
#
DISCID=950a670b
DTITLE=Carole Fredericks - Couleurs et parfums...
DYEAR=1999
DGENRE=Blues
TTITLE0=Qu'est-ce qui t'amène
TTITLE1=J'ai le sang blues
TTITLE2=Kaai Djallema
TTITLE3=Respire
TTITLE4=Le prix à payer
TTITLE5=Mighty love
TTITLE6=Au bout de mes rèves
TTITLE7=Ecope
TTITLE8=Personne ne saurait
TTITLE9=Vain
TTITLE10=Tu es là
EXTD=YEAR: 1999
EXTT0=
EXTT1=
EXTT2=
EXTT3=
EXTT4=
EXTT5=
EXTT6=
EXTT7=
EXTT8=
EXTT9=
EXTT10=
PLAYORDER=
